<?xml version="1.0" standalone="no"?>
<!DOCTYPE svg PUBLIC "-//W3C//DTD SVG 20010904//EN"
 "http://www.w3.org/TR/2001/REC-SVG-20010904/DTD/svg10.dtd">
<svg version="1.0" xmlns="http://www.w3.org/2000/svg"
 width="1000.000000pt" height="1000.000000pt" viewBox="0 0 1000.000000 1000.000000"
 preserveAspectRatio="xMidYMid meet">
<metadata>
Created by potrace 1.11, written by Peter Selinger 2001-2013
</metadata>
<g transform="translate(0.000000,1000.000000) scale(0.100000,-0.100000)"
fill="#000000" stroke="none">
<path d="M5420 9354 c-69 -37 -175 -72 -302 -99 -96 -20 -84 -18 -308 -50 -14
-2 -56 -6 -95 -10 -38 -4 -83 -8 -100 -10 -16 -2 -57 -7 -90 -10 -406 -42
-643 -119 -900 -291 -186 -123 -363 -296 -453 -439 -106 -170 -194 -409 -227
-615 -3 -19 -7 -46 -10 -60 -3 -14 -7 -47 -11 -75 -3 -27 -8 -57 -9 -66 -20
-105 -29 -702 -12 -854 l7 -70 -67 -32 c-38 -18 -80 -37 -95 -42 -46 -17 -60
-52 -63 -154 -1 -51 -10 -114 -19 -142 -13 -43 -15 -97 -13 -371 l2 -320 38
-77 c26 -54 53 -89 89 -121 53 -46 144 -96 176 -96 31 0 43 -16 48 -66 7 -64
59 -282 85 -359 70 -204 213 -458 340 -608 156 -182 381 -365 564 -459 l85
-43 0 -42 c0 -37 -3 -43 -21 -43 -12 0 -78 -9 -148 -21 -361 -59 -592 -153
-746 -304 -101 -99 -155 -207 -170 -342 l-7 -62 -142 -70 c-567 -283 -1005
-778 -1216 -1376 -104 -294 -139 -518 -137 -885 l2 -245 3405 0 3405 0 3 225
c2 124 -2 270 -8 325 -48 440 -211 868 -458 1205 -232 315 -543 579 -888 751
l-142 70 -7 62 c-22 202 -147 369 -360 481 -133 71 -372 139 -602 172 l-123
18 0 41 c0 40 1 41 58 68 193 92 485 333 616 507 22 30 44 57 47 60 3 3 29 41
58 85 61 93 167 307 204 415 40 114 90 331 96 422 1 3 16 9 34 13 135 28 258
147 302 291 22 73 21 619 -1 694 -9 30 -17 96 -18 146 -2 101 -17 137 -64 155
-15 5 -63 28 -107 49 -45 22 -87 40 -94 40 -16 0 -8 135 19 305 9 53 5 467 -4
564 -3 31 -8 88 -11 126 -12 149 -55 360 -100 485 -94 263 -222 421 -525 650
-154 116 -170 131 -170 161 0 16 12 57 26 92 43 103 35 156 -21 157 -16 0
-108 -32 -230 -80 -11 -5 -30 -10 -41 -13 l-22 -5 22 59 c41 114 -9 122 -188
29 l-118 -61 20 33 c37 61 61 113 59 128 -8 51 -58 53 -147 4z"/>
</g>
</svg>
